<svg id="Layer_3" data-name="Layer 3" xmlns="http://www.w3.org/2000/svg" viewBox="0 0 283.15 44.72"><defs><style>.cls-1,.cls-2{fill:#231f20;}.cls-2,.cls-3{stroke:#231f20;stroke-miterlimit:10;}.cls-2{stroke-width:1px;}.cls-3{fill:none;stroke-width:7px;}</style></defs><title>welcome-header</title><path class="cls-1" d="M90,195h28.22v6.82H107.37v36.69h-6.58V201.83H90Z" transform="translate(-89.96 -194.4)"/><path class="cls-1" d="M136.79,226.44v12h-6.59V195.19h6.59v0l1.18,0a13.85,13.85,0,0,1,10.47,4.59,16.34,16.34,0,0,1,0,22.14,16.47,16.47,0,0,1-2.26,2L154,238.58H147l-6.53-12.29a14.66,14.66,0,0,1-2.47.21A11.67,11.67,0,0,1,136.79,226.44Zm0-24.75V220a7.55,7.55,0,0,0,1.18.09,8.14,8.14,0,0,0,6.16-2.71,9.63,9.63,0,0,0,0-13,8.17,8.17,0,0,0-6.16-2.69Q137.38,201.63,136.79,201.68Z" transform="translate(-89.96 -194.4)"/><path class="cls-1" d="M181.87,194.8l11.82,43.86H187l-1.85-6.94H174.64l-1.85,6.94h-6.73l11.82-43.86Zm-5.35,30h6.7l-3.32-14Z" transform="translate(-89.96 -194.4)"/><path class="cls-1" d="M228.69,195.13h5.5v43.45h-6.62v-21l-7.44,19.84-7.47-20.14v21.25h-6.59V195.13h5.5l8.55,23.28Z" transform="translate(-89.96 -194.4)"/><path class="cls-2" d="M278.53,216.77a26.76,26.76,0,0,1-1.31,8.48,23,23,0,0,1-3.58,6.89,17.78,17.78,0,0,1-5.29,4.66,13.12,13.12,0,0,1-13,0,17.78,17.78,0,0,1-5.29-4.66,23,23,0,0,1-3.58-6.89,26.76,26.76,0,0,1-1.31-8.48,27.21,27.21,0,0,1,1.31-8.51,22.87,22.87,0,0,1,3.58-7,17.6,17.6,0,0,1,5.29-4.65,13.22,13.22,0,0,1,13,0,17.6,17.6,0,0,1,5.29,4.65,22.87,22.87,0,0,1,3.58,7A27.21,27.21,0,0,1,278.53,216.77Zm-28,0a19.19,19.19,0,0,0,.88,5.89,16,16,0,0,0,2.43,4.79,11.65,11.65,0,0,0,3.62,3.2,9,9,0,0,0,8.84,0,11.54,11.54,0,0,0,3.61-3.2,16.12,16.12,0,0,0,2.41-4.79,20.14,20.14,0,0,0,0-11.79,16.12,16.12,0,0,0-2.41-4.79,11.38,11.38,0,0,0-3.61-3.19,9.09,9.09,0,0,0-8.84,0,11.49,11.49,0,0,0-3.62,3.19,16,16,0,0,0-2.43,4.79A19.19,19.19,0,0,0,250.5,216.77Z" transform="translate(-89.96 -194.4)"/><path class="cls-1" d="M309.4,238.52l-15.32-26.87v26.87h-6.62V195.13h6.06l14.17,26V195h6.58v43.51Z" transform="translate(-89.96 -194.4)"/><path class="cls-1" d="M326.29,195h28.22v6.82H343.69v36.69h-6.58V201.83H326.29Z" transform="translate(-89.96 -194.4)"/><path class="cls-1" d="M366.53,195.25h6.59v43.27h-6.59Z" transform="translate(-89.96 -194.4)"/><ellipse class="cls-3" cx="171.51" cy="22.36" rx="14.36" ry="18.86"/></svg>