<svg id="call_icon" data-name="call icon" xmlns="http://www.w3.org/2000/svg" width="32.891" height="32.891" viewBox="0 0 32.891 32.891">
  <circle id="Ellipse_1" data-name="Ellipse 1" cx="16.445" cy="16.445" r="16.445" fill="#65bc54"/>
  <path id="Path_9" data-name="Path 9" d="M172.446,167.928c-.109-.181-.4-.288-.833-.5s-2.574-1.261-2.972-1.4-.694-.217-.98.215-1.123,1.4-1.377,1.692-.507.324-.942.108a11.894,11.894,0,0,1-3.5-2.142,12.947,12.947,0,0,1-2.42-2.988c-.251-.432-.027-.665.191-.88.2-.194.435-.5.652-.755a2.865,2.865,0,0,0,.435-.723.791.791,0,0,0-.036-.756c-.108-.214-.979-2.339-1.341-3.2s-.723-.723-.979-.723-.542-.036-.834-.036a1.6,1.6,0,0,0-1.16.542,4.823,4.823,0,0,0-1.522,3.6,8.36,8.36,0,0,0,1.776,4.464c.218.288,3.008,4.789,7.429,6.515s4.423,1.151,5.22,1.079a4.392,4.392,0,0,0,2.939-2.048,3.6,3.6,0,0,0,.254-2.052Z" transform="translate(-146.713 -147.894)" fill="#fff" fill-rule="evenodd"/>
</svg>
