<svg xmlns="http://www.w3.org/2000/svg" width="35.772" height="35.774" viewBox="0 0 35.772 35.774">
  <g id="iconfinder_circle-arrow-down_430086" transform="translate(-13.403 -13.369)">
    <g id="Group_1" data-name="Group 1" transform="translate(13.903 13.869)">
      <path id="Path_8" data-name="Path 8" d="M31.289,13.869A17.387,17.387,0,1,0,48.675,31.256,17.406,17.406,0,0,0,31.289,13.869Zm0,33.386a16,16,0,1,1,16-16A16.018,16.018,0,0,1,31.29,47.255Zm5.031-14.294L31.983,36.7V24.3a.694.694,0,0,0-1.387,0V36.7l-4.338-3.737a.694.694,0,0,0-.906,1.051l5.937,5.115,5.936-5.115a.694.694,0,0,0-.906-1.051Z" transform="translate(-13.903 -13.869)" fill="#a4937e" stroke="#a4937e" stroke-width="1"/>
    </g>
  </g>
</svg>
