<svg id="Layer_1" data-name="Layer 1" xmlns="http://www.w3.org/2000/svg" viewBox="0 0 364 364"><defs><style>.cls-1{fill:#828282;}.cls-2{fill:#fff;}</style></defs><title>footer-call-icon</title><circle class="cls-1" cx="182" cy="182" r="182"/><path class="cls-2" d="M402.79,289.72c-1.21-2-4.42-3.19-9.22-5.57s-28.49-14-32.89-15.53-7.68-2.4-10.85,2.38-12.43,15.53-15.24,18.72-5.61,3.59-10.43,1.2-20.32-7.43-38.71-23.7c-14.31-12.66-24-28.29-26.78-33.07s-.3-7.36,2.11-9.74c2.17-2.15,4.81-5.58,7.22-8.36s3.21-4.78,4.81-8,.8-6-.4-8.37-10.83-25.89-14.84-35.45-8-8-10.83-8-6-.4-9.23-.4a17.76,17.76,0,0,0-12.84,6c-4.41,4.78-16.84,16.33-16.84,39.83s17.24,46.21,19.65,49.4,33.29,53,82.22,72.1,49,12.74,57.77,11.94S396,323.59,400,312.43s4-20.72,2.81-22.71Z" transform="translate(-118 -68)"/></svg>