<svg id="Layer_3" data-name="Layer 3" xmlns="http://www.w3.org/2000/svg" viewBox="0 0 283.15 44.72"><defs><style>.cls-1{fill:#231f20;}.cls-2{fill:none;stroke:#231f20;stroke-miterlimit:10;stroke-width:7px;}</style></defs><title>navBarTramontiLogo</title><path class="cls-1" d="M90,195h28.22v6.82H107.37v36.69h-6.58V201.83H90Z" transform="translate(-89.96 -194.4)"/><path class="cls-1" d="M136.79,226.44v12h-6.59V195.19h6.59v0l1.18,0a13.85,13.85,0,0,1,10.47,4.59,16.34,16.34,0,0,1,0,22.14,16.47,16.47,0,0,1-2.26,2L154,238.58H147l-6.53-12.29a14.66,14.66,0,0,1-2.47.21A11.67,11.67,0,0,1,136.79,226.44Zm0-24.75V220a7.55,7.55,0,0,0,1.18.09,8.14,8.14,0,0,0,6.16-2.71,9.63,9.63,0,0,0,0-13,8.17,8.17,0,0,0-6.16-2.69Q137.38,201.63,136.79,201.68Z" transform="translate(-89.96 -194.4)"/><path class="cls-1" d="M181.87,194.8l11.82,43.86H187l-1.85-6.94H174.64l-1.85,6.94h-6.73l11.82-43.86Zm-5.35,30h6.7l-3.32-14Z" transform="translate(-89.96 -194.4)"/><path class="cls-1" d="M228.69,195.13h5.5v43.45h-6.62v-21l-7.44,19.84-7.47-20.14v21.25h-6.59V195.13h5.5l8.55,23.28Z" transform="translate(-89.96 -194.4)"/><path class="cls-1" d="M309.4,238.52l-15.32-26.87v26.87h-6.62V195.13h6.06l14.17,26V195h6.58v43.51Z" transform="translate(-89.96 -194.4)"/><path class="cls-1" d="M326.29,195h28.22v6.82H343.69v36.69h-6.58V201.83H326.29Z" transform="translate(-89.96 -194.4)"/><path class="cls-1" d="M366.53,195.25h6.59v43.27h-6.59Z" transform="translate(-89.96 -194.4)"/><ellipse class="cls-2" cx="171.51" cy="22.36" rx="14.36" ry="18.86"/></svg>